<?xml version="1.0" standalone="no"?>
<!DOCTYPE svg PUBLIC "-//W3C//DTD SVG 20010904//EN"
 "http://www.w3.org/TR/2001/REC-SVG-20010904/DTD/svg10.dtd">
<svg version="1.0" xmlns="http://www.w3.org/2000/svg"
 width="25.000000pt" height="20.000000pt" viewBox="0 0 25.000000 20.000000"
 preserveAspectRatio="xMidYMid meet">
<metadata>
Created by potrace 1.10, written by Peter Selinger 2001-2011
</metadata>
<g transform="translate(0.000000,20.000000) scale(0.100000,-0.100000)"
fill="#000000" stroke="none">
<path d="M64 178 l-19 -23 23 19 c21 18 27 26 19 26 -2 0 -12 -10 -23 -22z"/>
<path d="M161 197 c2 -1 13 -9 24 -17 19 -14 19 -14 6 3 -7 9 -18 17 -24 17
-6 0 -8 -1 -6 -3z"/>
<path d="M80 165 c-14 -17 0 -21 17 -4 8 8 13 7 18 -1 4 -7 1 -17 -6 -22 -11
-7 -11 -11 -1 -15 6 -2 10 -9 6 -14 -8 -14 -24 -11 -24 6 0 8 -7 15 -15 15
-17 0 -35 -30 -35 -58 0 -22 30 -52 51 -52 8 1 3 7 -10 14 -15 8 -20 16 -12
20 6 4 16 4 22 0 6 -3 15 0 20 7 4 7 11 10 16 6 4 -5 1 -12 -7 -18 -13 -8 -13
-10 0 -19 39 -26 91 4 89 51 -1 17 -3 19 -6 7 -5 -22 -33 -24 -33 -3 0 9 -6
12 -15 9 -8 -4 -15 -1 -15 5 0 6 9 11 20 11 26 0 27 31 2 53 -23 21 -65 22
-82 2z m80 -14 c14 -27 13 -34 -4 -28 -21 8 -30 -25 -12 -39 9 -6 16 -16 16
-22 0 -6 8 -9 18 -6 15 5 15 4 -1 -9 -24 -20 -46 -12 -40 14 4 13 0 19 -11 19
-18 0 -22 15 -6 25 5 3 7 12 3 20 -3 8 0 15 6 15 6 0 8 7 5 15 -9 22 14 18 26
-4z m-74 -55 c20 -20 17 -28 -6 -21 -13 4 -20 2 -20 -6 0 -7 -3 -10 -6 -6 -6
6 4 47 12 47 3 0 12 -6 20 -14z"/>
<path d="M208 133 c5 -21 7 -23 10 -9 2 10 0 22 -6 28 -6 6 -7 0 -4 -19z"/>
<path d="M37 9 c7 -7 15 -10 18 -7 3 3 -2 9 -12 12 -14 6 -15 5 -6 -5z"/>
</g>
</svg>
